# xmcd
#
# Track frame offsets:
# 150
# 8749
# 51708
# 75522
# 101453
#
# Disc length: 1652 seconds
#
# Revision: 0
# Processed by: cddbd v1.5.1PL0 Copyright (c) Steve Scherf et al.
# Submitted via: Audion 3.0.2 (http://www.panic.com/audion/)
#
DISCID=33067205
DTITLE=DJ Bounty - New Bounty Preview
DYEAR=1900
DGENRE=
TTITLE0=KOMTNOG
TTITLE1=KOMTNOG
TTITLE2=KOMTNOG
TTITLE3=KOMTNOG
TTITLE4=KOMTNOG
EXTD=
EXTT0=
EXTT1=
EXTT2=
EXTT3=
EXTT4=
PLAYORDER=
